<svg t="1758940362847" class="icon" viewBox="0 0 1024 1024" version="1.1" xmlns="http://www.w3.org/2000/svg" p-id="7925"
     width="200" height="200">
    <path fill="#0000FF" d="M808.106667 353.962667C678.4 294.058667 492.117333 256 316.842667 270.165333c8.789333-58.026667 30.464-98.474667 66.048-107.008 48.981333-11.733333 102.4 20.48 153.344 79.104 33.365333 4.352 72.96 11.946667 100.48 18.304C543.872 85.888 419.328-12.032 324.565333 24.106667c-72.021333 27.477333-108.928 126.72-104.448 260.010666-93.866667 19.968-167.04 55.466667-213.888 106.453334-2.389333 2.773333-7.722667 9.685333-5.845333 13.013333 1.450667 2.474667 6.229333-0.341333 8.277333-1.706667 54.357333-37.973333 123.904-58.581333 214.485334-71.509333 12.928 142.208 73.088 322.56 173.013333 467.285333-54.613333 21.418667-100.522667 22.869333-125.696-3.712-34.645333-36.522667-33.450667-98.901333-8.106667-172.373333a1141.930667 1141.930667 0 0 1-34.432-96.170667c-104.917333 167.850667-127.402667 324.693333-48.768 388.693334 59.818667 48.64 164.138667 30.933333 277.418667-39.509334 64.213333 71.338667 131.541333 116.906667 199.125333 132.010667 3.584 0.64 12.245333 1.834667 14.165334-1.450667 1.450667-2.56-3.413333-5.290667-5.589334-6.357333-60.074667-28.032-112.64-77.994667-169.130666-149.973333 116.693333-82.304 242.816-224.554667 318.165333-383.488 45.909333 36.693333 69.973333 75.648 59.648 110.72-14.336 48.256-68.906667 78.506667-145.194667 93.226666a1181.738667 1181.738667 0 0 1-66.048 77.909334c197.717333 6.826667 344.746667-52.053333 360.874667-152.106667 12.202667-76.202667-55.253333-157.696-172.928-220.586667 29.696-91.264 35.498667-172.373333 14.762667-238.421333-1.237333-3.413333-4.522667-11.52-8.362667-11.52-2.901333 0-2.858667 5.546667-2.688 7.978667 5.76 66.005333-11.221333 136.533333-45.312 221.44z m-364.074667 421.077333c-83.626667-134.186667-131.84-292.224-131.498667-452.010667 157.952-5.290667 318.890667 31.914667 457.130667 112.085334-74.368 139.477333-187.093333 260.266667-325.674667 339.882666h0.042667z"
          p-id="7926"></path>
</svg>